<svg width="1280" height="360" viewBox="0 0 1280 360" fill="none" xmlns="http://www.w3.org/2000/svg">
  <rect width="1280" height="360" rx="28" fill="#EEF4FE"/>
  <text x="640" y="54" text-anchor="middle" fill="#60708A" font-family="-apple-system, BlinkMacSystemFont, 'SF Pro Text', system-ui, sans-serif" font-size="24" font-weight="600">Rustzen Zipper Menu Bar Icon Variants</text>
  <g transform="translate(135 110)" color="#9FB0C8"><path d="M29 34H91L29 94H91" stroke="currentColor" stroke-width="18" stroke-linecap="round" stroke-linejoin="round"/><path d="M45 84L79 48" stroke="currentColor" stroke-opacity="0.55" stroke-width="7" stroke-linecap="round"/><path d="M50 78L74 53" stroke="#EEF4FE" stroke-opacity="0.82" stroke-width="4" stroke-linecap="round" stroke-dasharray="3 5"/><circle cx="44" cy="86" r="8" fill="none" stroke="currentColor" stroke-width="5"/><path d="M44 94V108" stroke="currentColor" stroke-width="6" stroke-linecap="round"/></g>
  <g transform="translate(437 110)" color="#77A8F7"><path d="M29 34H91L29 94H91" stroke="currentColor" stroke-width="18" stroke-linecap="round" stroke-linejoin="round"/><path d="M45 84L79 48" stroke="currentColor" stroke-opacity="0.55" stroke-width="7" stroke-linecap="round"/><path d="M50 78L74 53" stroke="#FFFFFF" stroke-opacity="0.9" stroke-width="4" stroke-linecap="round" stroke-dasharray="3 5"/><circle cx="44" cy="86" r="8" fill="none" stroke="currentColor" stroke-width="5"/><path d="M44 94V108" stroke="currentColor" stroke-width="6" stroke-linecap="round"/></g>
  <g transform="translate(739 110)" color="#2F3E58"><path d="M29 34H91L29 94H91" stroke="currentColor" stroke-width="18" stroke-linecap="round" stroke-linejoin="round"/><path d="M45 84L79 48" stroke="currentColor" stroke-opacity="0.55" stroke-width="7" stroke-linecap="round"/><path d="M50 78L74 53" stroke="#EEF4FE" stroke-opacity="0.72" stroke-width="4" stroke-linecap="round" stroke-dasharray="3 5"/><circle cx="44" cy="86" r="8" fill="none" stroke="currentColor" stroke-width="5"/><path d="M44 94V108" stroke="currentColor" stroke-width="6" stroke-linecap="round"/></g>
  <g transform="translate(1041 110)" color="#A8CBFB"><path d="M29 34H91L29 94H91" stroke="currentColor" stroke-width="18" stroke-linecap="round" stroke-linejoin="round"/><path d="M45 84L79 48" stroke="currentColor" stroke-opacity="0.55" stroke-width="7" stroke-linecap="round"/><path d="M50 78L74 53" stroke="#FFFFFF" stroke-opacity="0.9" stroke-width="4" stroke-linecap="round" stroke-dasharray="3 5"/><circle cx="44" cy="86" r="8" fill="none" stroke="currentColor" stroke-width="5"/><path d="M44 94V108" stroke="currentColor" stroke-width="6" stroke-linecap="round"/></g>
  <text x="200" y="276" text-anchor="middle" fill="#60708A" font-family="-apple-system, BlinkMacSystemFont, 'SF Pro Text', system-ui, sans-serif" font-size="20" font-weight="600">Inactive Light</text>
  <text x="502" y="276" text-anchor="middle" fill="#60708A" font-family="-apple-system, BlinkMacSystemFont, 'SF Pro Text', system-ui, sans-serif" font-size="20" font-weight="600">Active Light</text>
  <text x="804" y="276" text-anchor="middle" fill="#60708A" font-family="-apple-system, BlinkMacSystemFont, 'SF Pro Text', system-ui, sans-serif" font-size="20" font-weight="600">Inactive Dark</text>
  <text x="1106" y="276" text-anchor="middle" fill="#60708A" font-family="-apple-system, BlinkMacSystemFont, 'SF Pro Text', system-ui, sans-serif" font-size="20" font-weight="600">Accent</text>
</svg>
